<svg xmlns="http://www.w3.org/2000/svg" xmlns:xlink="http://www.w3.org/1999/xlink" width="650" zoomAndPan="magnify" viewBox="0 0 487.5 37.5" height="50" preserveAspectRatio="xMidYMid meet" version="1.0"><defs><g><g id="id1"/></g><clipPath id="id2"><path d="M 2.960938 0 L 484.046875 0 L 484.046875 37.007812 L 2.960938 37.007812 Z M 2.960938 0 " clip-rule="nonzero"/></clipPath></defs><g clip-path="url(#id2)"><path fill="rgb(100%, 100%, 100%)" d="M 2.960938 0 L 484.539062 0 L 484.539062 43.710938 L 2.960938 43.710938 Z M 2.960938 0 " fill-opacity="1" fill-rule="nonzero"/><path fill="rgb(100%, 100%, 100%)" d="M 2.960938 0 L 484.539062 0 L 484.539062 37.042969 L 2.960938 37.042969 Z M 2.960938 0 " fill-opacity="1" fill-rule="nonzero"/><path fill="rgb(100%, 100%, 100%)" d="M 2.960938 0 L 484.539062 0 L 484.539062 37.042969 L 2.960938 37.042969 Z M 2.960938 0 " fill-opacity="1" fill-rule="nonzero"/><path fill="rgb(100%, 100%, 100%)" d="M 2.960938 0 L 484.539062 0 L 484.539062 37.042969 L 2.960938 37.042969 Z M 2.960938 0 " fill-opacity="1" fill-rule="nonzero"/></g><g fill="rgb(0%, 0%, 0%)" fill-opacity="1"><g transform="translate(168.279561, 31.550262)"><g><path d="M 0.546875 0 L 6.082031 0 L 7.039062 -2.632812 L 15.136719 -2.632812 L 16.128906 0 L 21.628906 0 L 11.34375 -25.320312 L 10.832031 -25.320312 Z M 8.816406 -7.210938 L 11.105469 -13.566406 L 13.328125 -7.210938 Z M 8.816406 -7.210938 "/></g></g></g><g fill="rgb(0%, 0%, 0%)" fill-opacity="1"><g transform="translate(190.592381, 31.550262)"><g><path d="M 14.488281 0.339844 C 31.300781 0.339844 31.300781 -24.839844 14.488281 -24.839844 C -2.324219 -24.839844 -2.324219 0.339844 14.488281 0.339844 Z M 14.488281 -4.714844 C 4.714844 -4.714844 4.714844 -19.820312 14.488281 -19.820312 C 24.261719 -19.820312 24.261719 -4.714844 14.488281 -4.714844 Z M 14.488281 -4.714844 "/></g></g></g><g fill="rgb(0%, 0%, 0%)" fill-opacity="1"><g transform="translate(219.534125, 31.550262)"><g><path d="M 13.941406 -14.078125 L 4.304688 -24.808594 L 2.734375 -24.808594 L 2.734375 0 L 7.6875 0 L 7.6875 -13.632812 L 13.941406 -7.074219 L 20.195312 -13.632812 L 20.160156 0 L 25.113281 0 L 25.113281 -24.808594 L 23.578125 -24.808594 Z M 13.941406 -14.078125 "/></g></g></g><g fill="rgb(0%, 0%, 0%)" fill-opacity="1"><g transform="translate(247.416612, 31.550262)"><g><path d="M 7.621094 0 L 7.621094 -24.429688 L 2.734375 -24.429688 L 2.734375 0 Z M 7.621094 0 "/></g></g></g><g fill="rgb(0%, 0%, 0%)" fill-opacity="1"><g transform="translate(257.8042, 31.550262)"><g><path d="M 15.375 0 L 15.375 -4.886719 L 7.621094 -4.886719 L 7.621094 -9.773438 L 14.042969 -9.773438 L 14.042969 -14.660156 L 7.621094 -14.660156 L 7.621094 -19.546875 L 14.964844 -19.546875 L 14.964844 -24.429688 L 2.734375 -24.429688 L 2.734375 0 Z M 15.375 0 "/></g></g></g><g fill="rgb(0%, 100%, 0%)" fill-opacity="1"><g transform="translate(275.025705, 31.550262)"><g><path d="M 3.757812 -5.261719 C 0.0664062 -5.261719 0.0664062 0.238281 3.757812 0.238281 C 7.414062 0.238281 7.515625 -5.261719 3.757812 -5.261719 Z M 3.757812 -5.261719 "/></g></g></g><g fill="rgb(0%, 0%, 0%)" fill-opacity="1"><g transform="translate(283.360725, 31.550262)"><g><path d="M 7.621094 0 L 7.621094 -24.429688 L 2.734375 -24.429688 L 2.734375 0 Z M 7.621094 0 "/></g></g></g><g fill="rgb(0%, 0%, 0%)" fill-opacity="1"><g transform="translate(293.748317, 31.550262)"><g><path d="M 7.621094 -13.292969 L 19.988281 0.511719 L 21.289062 0.511719 L 21.289062 -24.398438 L 16.367188 -24.398438 L 16.367188 -10.59375 L 4.03125 -24.945312 L 2.734375 -24.945312 L 2.734375 0 L 7.621094 0 Z M 7.621094 -13.292969 "/></g></g></g><path fill="rgb(100%, 100%, 100%)" d="M 179.453125 15.109375 L 188.339844 31.40625 L 170.566406 31.40625 L 179.453125 15.109375 " fill-opacity="1" fill-rule="nonzero"/><g fill="rgb(100%, 100%, 100%)" fill-opacity="1"><g transform="translate(179.40589, 29.185452)"><g/></g></g></svg>